<?xml version="1.0" encoding="utf-8"?>
<!-- Generator: Adobe Illustrator 23.0.3, SVG Export Plug-In . SVG Version: 6.00 Build 0)  -->
<svg version="1.1" id="Layer_1" xmlns="http://www.w3.org/2000/svg" xmlns:xlink="http://www.w3.org/1999/xlink" x="0px" y="0px"
	 viewBox="0 0 288 288" enable-background="new 0 0 288 288" xml:space="preserve">
<g>
	<g>
		<g>
			<path fill="#BE1E2D" d="M128.3,72c-0.4,0.7-1.3,1.1-2.7,1.2c-1.4,0-2.1-0.5-2.3-1.3c-0.6-5.1-0.8-10.5-0.8-16.2v-4.6
				c0-6.3,0.4-11.1,1.1-14.4c0.4-0.9,1.3-1.4,2.5-1.5c1.3,0,2.1,0.4,2.5,1.2c0.1,0.2,0.1,0.4,0.1,0.6v0.2c0,0.1,0,0.2,0,0.4
				c0,0.1-0.1,0.3-0.1,0.3c2.2-2.3,4.4-3.5,6.6-3.5c3.3,0,5.7,1.5,7.1,4.5c0.6,1.4,0.9,3,0.9,4.6c0,3.6-1.2,6.8-3.6,9.4
				c-1,1-2.1,1.9-3.3,2.5c3.9,1.4,6.5,3.6,7.8,6.6c0.4,1,0.6,2,0.6,3c0,3.9-1.5,6.6-4.6,8.2c-1.5,0.7-3.1,1.1-4.8,1.1
				C132.6,74.4,130.3,73.6,128.3,72z M127.5,66.5L127.5,66.5l0.1,0.1c0.8,2.4,2.4,3.8,4.6,4.2c0.4,0.1,0.8,0.1,1.1,0.1
				c2.2,0,3.8-0.8,5.1-2.5c0.7-1,1.1-2,1.1-3.2c0-2.5-1.2-4.5-3.6-6.1c-2.2-1.4-5-2.2-8.4-2.2c0,0.3,0,0.7-0.1,1.3c0,0.6,0,1,0,1.3
				v2.5C127.4,63.9,127.4,65.5,127.5,66.5z M128.2,43.5c-0.4,6-0.6,9.4-0.7,10.3c0.6,0.1,1.5,0.2,2.5,0.2c3.6,0,6.1-1.5,7.5-4.5
				c0.6-1.3,0.9-2.6,0.9-4.1c0-2.8-0.9-4.9-2.6-6.3c-0.9-0.7-2-1.1-3.1-1.1c-1.2,0-2.3,0.9-3.4,2.8
				C128.8,41.6,128.4,42.5,128.2,43.5z"/>
			<path fill="#BE1E2D" d="M151.2,73.2h-0.4c-1.4,0-2.1-0.5-2.3-1.3c-0.8-7.3-1.2-13.7-1.2-19.3c0-6.4,0.5-11.7,1.5-15.9
				c0.3-1,1.1-1.5,2.5-1.5c3,0,7.6,0.4,13.8,1.1c0.6,0.1,1,0.1,1.5,0.2c0.6,0,1,0.4,1.2,1.2c0.1,0.2,0.1,0.4,0.1,0.6
				c0,0.9-0.3,1.4-0.9,1.7c-0.2,0-0.3,0.1-0.4,0.1h-0.1c-1-0.1-2.4-0.3-4.1-0.4c-3.5-0.4-6.4-0.6-8.6-0.7c-0.4,5.6-0.7,11-0.8,16.2
				c1.1,0,3.5-0.4,7.1-0.9c0.4-0.1,0.7-0.1,1-0.2h0.1c0.6,0,1.1,0.4,1.3,1.1c0.1,0.2,0.1,0.4,0.1,0.6c0,0.8-0.3,1.3-0.9,1.7
				c-0.1,0.1-0.3,0.1-0.4,0.1c-0.7,0.1-1.6,0.3-2.7,0.4c-2.3,0.4-4.2,0.6-5.7,0.7v0.6c0,4.1,0.2,7.6,0.6,10.6h0.2
				c2.2,0,5.6-0.3,10.4-0.9c1-0.1,1.9-0.2,2.7-0.3h0.1c0.6,0,1.1,0.4,1.3,1.2c0,0.2,0.1,0.4,0.1,0.6c0,0.9-0.3,1.4-0.9,1.7
				c-0.1,0-0.2,0.1-0.3,0.1c-6,0.6-9.1,0.9-9.5,0.9c-1.3,0.1-2.5,0.1-3.8,0.1c-0.1,0-0.4,0-0.8,0c-0.4,0-0.7,0.1-0.8,0.1H151.2z"/>
		</g>
		<g>
			<path fill="#BE1E2D" d="M112.2,171.5c-1.9-2.1-4.1-4-6.6-5.5c-2.5-1.6-5.1-2.8-7.8-3.7c0.4-3.3,0.6-6.6,0.7-10
				c0.1-3.4,0.1-6.7,0.1-10.1c0-4.2-0.1-8.5-0.2-12.9c-0.1-4.3-0.1-8.6-0.1-13c0.1-4.3,0.3-8.6,0.6-12.9c0.3-4.3,0.9-8.6,1.8-12.8
				c1.4-0.4,2.8-1,4.2-1.8c1.4-0.7,2.6-1.6,3.7-2.7c1.1-1.1,2-2.3,2.6-3.6c0.7-1.3,1-2.8,1-4.4c0-1.5-0.5-2.9-1.5-4
				c-1-1.1-2.3-1.6-3.9-1.6c-2.3,0-4.1,0.6-5.5,1.9c-1.4,1.2-2.5,2.7-3.4,4.4c-0.9,1.7-1.6,3.5-2,5.4c-0.5,1.9-0.9,3.4-1.3,4.6
				c-3.8,1-7.9,2.4-12.2,4.2c-4.3,1.8-8.3,4-12,6.6c-3.7,2.7-6.8,5.8-9.2,9.4c-2.4,3.6-3.6,7.7-3.6,12.3c0,5.1,1.4,9.1,4.2,12.1
				c2.8,3,6.8,4.6,12.1,4.6c1.8,0,3.6-0.4,5.2-1.3c1.6-0.8,3.1-1.9,4.3-3.3c1.2-1.4,2.2-2.9,2.9-4.6c0.7-1.7,1-3.5,1-5.2
				c0-2-0.4-3.8-1.2-5.4c-0.8-1.6-1.9-3-3.2-4.1c-1.3-1.1-2.9-2-4.7-2.6c-1.8-0.6-3.7-0.9-5.7-0.9c-0.6,0-1,0.1-1.4,0.4
				c-0.3,0.3-0.5,0.6-0.5,0.9c0,0.3,0.1,0.6,0.4,0.9c0.3,0.3,0.7,0.4,1.3,0.4c0.4,0,0.8-0.1,1.3-0.4c0.5-0.3,1.1-0.4,1.6-0.4
				c1.2,0,2.4,0.3,3.6,1c1.1,0.7,2.1,1.6,3,2.6c0.9,1,1.6,2.2,2.1,3.4c0.5,1.2,0.8,2.5,0.8,3.6c0,1.5-0.3,2.8-1,4.1
				c-0.7,1.3-1.5,2.4-2.5,3.4c-1,1-2.2,1.8-3.6,2.3s-2.8,0.8-4.2,0.8c-1.8,0-3.3-0.4-4.5-1.1c-1.2-0.7-2.3-1.7-3.1-2.9
				s-1.4-2.6-1.8-4.1c-0.4-1.5-0.5-3.1-0.5-4.6c0-3.8,1-7.3,3-10.4c2-3.1,4.5-5.9,7.5-8.2c3-2.4,6.3-4.4,9.8-6
				c3.6-1.6,6.9-2.9,10.1-3.9c-0.9,4.1-1.4,8.4-1.6,12.9c-0.2,4.5-0.3,9.1-0.3,13.8c0,4.7,0.2,9.5,0.4,14.4
				c0.2,4.9,0.3,9.7,0.3,14.3c0,4.3-0.2,8.7-0.7,13.1c-1-0.2-2.1-0.4-3.2-0.4c-1.1-0.1-2.2-0.1-3.2-0.1c-3.8,0-7.6,0.6-11.5,1.9
				c-3.8,1.3-7.3,3.1-10.4,5.5s-5.6,5.2-7.6,8.6c-1.9,3.3-2.9,7.1-2.9,11.3c0,2.6,0.5,4.9,1.4,7c0.9,2.1,2.2,3.9,3.7,5.4
				c1.6,1.5,3.4,2.7,5.6,3.5c2.2,0.8,4.5,1.3,7.1,1.3c3.1,0,6-0.7,8.4-1.9c2.5-1.3,4.7-3,6.5-5.2c1.9-2.1,3.5-4.6,4.8-7.4
				c1.3-2.8,2.4-5.7,3.3-8.7c0.9-3,1.6-6,2.1-8.9c0.5-2.9,0.9-5.6,1.2-8.1c2.3,0.7,4.6,1.8,6.8,3.3c2.2,1.5,4.1,3.2,5.9,5.1
				c1.7,1.9,3.1,4.1,4.1,6.5c1,2.4,1.5,4.9,1.5,7.5c0,1.2-0.2,2.5-0.6,3.7c-0.4,1.2-1,2.3-1.7,3.3c-0.7,1-1.6,1.7-2.7,2.3
				s-2.3,0.9-3.7,0.9c-1.2,0-2.1-0.2-2.7-0.7c-0.6-0.4-1.1-0.9-1.5-1.5s-0.7-1-1-1.5c-0.3-0.4-0.7-0.7-1.1-0.7
				c-0.4,0-0.7,0.2-0.9,0.5c-0.2,0.3-0.3,0.7-0.3,1c0,1,0.3,1.8,0.8,2.5c0.5,0.7,1.2,1.3,2,1.7c0.8,0.5,1.6,0.8,2.5,1.1
				c0.9,0.2,1.7,0.4,2.5,0.4c1.8,0,3.4-0.3,4.8-1c1.4-0.7,2.6-1.6,3.5-2.9c1-1.2,1.7-2.6,2.1-4.2c0.5-1.6,0.7-3.2,0.7-4.9
				c0-3-0.6-5.8-1.7-8.5C115.7,176,114.1,173.7,112.2,171.5z M102.3,84.6c0.4-1.1,0.8-2.2,1.4-3.2c0.5-1.1,1.2-2,1.9-2.8
				c0.7-0.8,1.5-1.2,2.3-1.2c0.5,0,0.9,0.2,1.1,0.5c0.2,0.3,0.3,0.7,0.3,1.2c0,0.9-0.3,1.8-0.8,2.6c-0.5,0.9-1.2,1.7-2,2.5
				c-0.8,0.8-1.7,1.4-2.6,2c-0.9,0.5-1.7,0.9-2.5,1.2C101.7,86.6,102,85.7,102.3,84.6z M91,169.5c-0.4,2.6-1,5.3-1.8,8.2
				c-0.8,2.9-1.7,5.7-2.8,8.5c-1.1,2.8-2.4,5.4-3.9,7.6c-1.5,2.3-3.2,4.1-5.2,5.5c-2,1.4-4.2,2.1-6.6,2.1c-2.2,0-4.2-0.4-5.9-1.2
				c-1.7-0.8-3.2-1.8-4.3-3.2c-1.2-1.4-2.1-3-2.7-4.9c-0.6-1.9-0.9-3.9-0.9-6c0-3.7,0.9-7,2.6-9.9c1.8-2.9,4-5.4,6.8-7.5
				c2.7-2.1,5.8-3.7,9.2-4.8c3.4-1.1,6.8-1.6,10.1-1.6c1.1,0,2.2,0.1,3.2,0.2c1,0.1,2,0.2,3.1,0.4C91.6,164.7,91.4,166.9,91,169.5z"
				/>
			<path fill="#BE1E2D" d="M224.1,180.4c-0.5-1.2-1.2-2.1-2.1-2.9c-0.9-0.8-1.9-1.4-3.1-1.9c-1.2-0.5-2.5-0.9-3.8-1.1
				c0.4-2.6,0.8-5.1,1.2-7.7c0.4-2.6,0.7-5.2,1-7.9h0.1c0.1-2.7,0.3-5.6,0.6-8.7c0.3-3.1,0.5-6.2,0.8-9.3c0.3-3.1,0.5-6.1,0.7-9.1
				c0.2-3,0.3-5.7,0.3-8.2c0-0.4-0.3-0.8-0.8-1.1c-0.5-0.3-1.1-0.5-1.7-0.7c-0.6-0.1-1.2-0.2-1.8-0.1c-0.5,0.1-0.9,0.2-1,0.4
				c-0.3,0.5-0.7,1.7-1.2,3.7c-0.5,1.9-1,4.2-1.7,6.8c-0.7,2.6-1.4,5.4-2.4,8.3c-0.9,2.9-2,5.6-3.1,8c-1.2,2.4-2.5,4.4-3.9,6
				c-1.4,1.6-3,2.4-4.8,2.4c-0.6,0-1-0.4-1.3-1.2c-0.3-0.8-0.4-1.7-0.5-2.7c-0.1-1-0.2-2-0.2-2.9c0-1,0-1.6,0-2
				c0-0.5,0.1-1.5,0.2-2.9c0.1-1.4,0.2-3.1,0.3-5c0.1-1.9,0.2-3.9,0.4-6s0.3-4.1,0.4-5.9c0.1-1.8,0.2-3.4,0.2-4.8
				c0-1.4,0-2.2-0.1-2.6c-0.1-0.7-0.5-1.1-1.1-1.4c-0.6-0.3-1.2-0.4-1.8-0.4c-0.6,0-1.2,0.2-1.7,0.5c-0.5,0.3-0.8,0.7-0.8,1.1
				c-0.1,2-0.2,4.2-0.3,6.6c-0.1,2.4-0.3,4.9-0.4,7.4c-0.1,2.5-0.2,5-0.3,7.5c0,0.6,0,1.2-0.1,1.7c-0.2,0.6-0.4,1.2-0.6,1.8
				c-0.8,2.3-1.6,4.6-2.6,6.9c-1,2.3-2,4.4-3,6.2c-1,1.8-2.1,3.3-3.1,4.5c-1.1,1.2-2.1,1.8-3,1.8c-1,0-1.9-0.8-2.6-2.3
				c-0.7-1.5-1.3-3.4-1.7-5.8c-0.4-2.3-0.8-4.9-0.9-7.7c-0.2-2.8-0.3-5.5-0.4-8.1c-0.1-2.6-0.2-4.9-0.2-6.9c0-2,0-3.4,0-4.1
				c1.7-2.6,3.5-6,5.4-10c1.9-4,3.6-8.2,5.2-12.5c1.6-4.3,2.9-8.6,4-12.8c1.1-4.2,1.6-7.8,1.6-10.9c0-1.2-0.1-2.4-0.3-3.6
				c-0.2-1.2-0.6-2.4-1.2-3.4s-1.3-1.9-2.3-2.5c-1-0.7-2.1-1-3.5-1c-2.4,0-4.4,1.2-6.1,3.5c-1.6,2.3-3,5.3-4.2,9
				c-1.1,3.6-2,7.7-2.7,12.1c-0.7,4.4-1.2,8.7-1.5,12.9c-0.3,4.2-0.5,8-0.7,11.5c-0.1,3.5-0.2,6.1-0.2,7.8c0,1,0,2.6,0,4.6
				c0,2.1,0.1,4.4,0.2,6.9c-0.7,2.6-1.6,5.6-2.7,9.2c-1.1,3.6-2.2,6.9-3.5,10.2c-1.2,3.2-2.5,6-3.8,8.2c-1.3,2.2-2.6,3.4-3.7,3.4
				c-1,0-1.9-0.8-2.6-2.3c-0.7-1.5-1.3-3.4-1.7-5.8c-0.4-2.3-0.8-4.9-0.9-7.7c-0.2-2.8-0.3-5.5-0.4-8.1c-0.1-2.6-0.2-4.9-0.2-6.9
				c0-2,0-3.4,0-4.1c1.7-2.6,3.5-6,5.4-10.1c1.9-4.1,3.7-8.4,5.3-12.9c1.6-4.5,3-8.9,4.1-13.2c1.1-4.3,1.6-8,1.6-11.1
				c0-1.2-0.1-2.3-0.4-3.5c-0.3-1.1-0.7-2.1-1.3-3c-0.6-0.9-1.4-1.6-2.4-2.1c-1-0.5-2.2-0.8-3.6-0.8c-2.3,0-4.4,1.2-6,3.5
				c-1.7,2.3-3.1,5.3-4.2,9s-2,7.7-2.7,12.1c-0.7,4.4-1.2,8.7-1.5,12.9c-0.3,4.2-0.5,8-0.7,11.5c-0.1,3.5-0.2,6.1-0.2,7.8
				c0,0.4,0,0.9,0,1.5c-0.6,1.3-1.3,2.5-2,3.6c-0.9,1.4-1.9,2.7-2.9,3.8c-1.1,1.1-2.2,2-3.3,2.7c0.3-1.7,0.5-3.4,0.6-5.1
				c0.1-1.7,0.2-3.4,0.2-5.1c0-1.2-0.1-2.9-0.2-5.1c-0.1-2.2-0.4-4.3-0.9-6.4c-0.5-2.1-1.3-4-2.4-5.5c-1.1-1.5-2.5-2.3-4.4-2.3
				c-1.2,0-2.3,0.3-3.1,0.9c0,0,0,0,0,0c-0.2-0.3-0.6-0.6-1.1-0.9c-0.5-0.3-1.1-0.5-1.7-0.7c-0.6-0.1-1.2-0.1-1.7,0
				c-1.8,0.5-3.5,1.9-4.9,4.1c-1.4,2.2-2.6,4.8-3.6,7.7c-1,3-1.7,6.1-2.2,9.4c-0.5,3.3-0.8,6.4-0.8,9.2c0,2,0.2,4.3,0.6,6.9
				c0.4,2.6,1.1,5.1,2.2,7.4c1,2.3,2.4,4.2,4.1,5.8c1.7,1.6,3.9,2.4,6.6,2.4c1.5,0,3-0.8,4.3-2.4c1.3-1.6,2.5-3.5,3.6-5.7
				s2-4.4,2.7-6.6c0.7-2.2,1.2-3.9,1.5-5.2c1.4-0.6,2.8-1.6,4.1-2.9s2.6-2.9,3.8-4.5c0.3-0.5,0.6-1,0.9-1.5c0,2.3,0.1,4.9,0.3,7.7
				c0.2,2.9,0.5,5.9,0.9,9c0.4,3.1,1,5.9,1.8,8.4c0.8,2.5,1.7,4.6,2.9,6.3c1.2,1.6,2.6,2.5,4.4,2.5c1.4,0,2.9-1,4.4-2.9
				c1.5-1.9,3-4.4,4.4-7.3c1.4-2.9,2.7-6.2,4-9.7c1.2-3.5,2.3-6.8,3.2-10c0.3,2.7,0.7,5.4,1.1,8c0.4,2.6,1,5,1.8,7.1
				c0.8,2.1,1.7,3.8,2.9,5.1c1.1,1.3,2.5,2,4,2c1.4,0,2.8-0.6,4.1-1.9c1.4-1.2,2.7-2.9,4-4.9c1.3-2,2.5-4.3,3.6-6.8
				c0.9-1.9,1.7-3.9,2.4-5.9c0,0.9,0,1.8,0.1,2.7c0.1,1.3,0.4,2.5,0.8,3.5c0.4,1.1,1.1,1.9,2,2.6s2.1,1,3.7,1c1.5,0,3-0.5,4.3-1.6
				c1.4-1.1,2.6-2.4,3.7-4.1c1.1-1.7,2.2-3.6,3.1-5.6c1-2,1.8-4.1,2.5-6.2c0.7-2,1.3-4,1.8-5.8c0.5-1.8,0.8-3.2,1-4.3l-1.6,23.5
				c-0.3,3.1-0.6,6.1-0.9,9.1c-0.3,3-0.7,5.8-1.2,8.6c-3.7,0.1-7.7,1-12,2.5c-4.3,1.5-8.3,3.6-12,6.3c-3.7,2.6-6.8,5.7-9.3,9.3
				c-2.5,3.6-3.8,7.4-3.8,11.5c0,2.1,0.3,4,1,5.7c0.7,1.6,1.7,3.1,2.9,4.2c1.2,1.2,2.7,2.1,4.4,2.7c1.7,0.6,3.6,0.9,5.7,0.9
				c4.5,0,8.4-1.3,11.7-4c3.3-2.6,6.1-6.2,8.4-10.7c2.3-0.7,4.5-1.6,6.6-2.7c2.2-1.1,4.1-2.4,5.8-3.8c1.7-1.5,3-3.2,4.1-5.1
				c1-1.9,1.6-4.1,1.6-6.4C224.8,183,224.6,181.6,224.1,180.4z M127.2,157.7c-0.5,1.8-1.2,3.6-2.1,5.4c-0.8,1.8-1.8,3.4-2.9,4.7
				s-2.3,2-3.5,2c-1.5,0-2.6-0.8-3.5-2.3c-0.9-1.5-1.5-3.2-2-5.2c-0.4-2-0.7-4-0.9-5.9c-0.1-2-0.2-3.4-0.2-4.4
				c0-2.5,0.2-5.1,0.5-7.9c0.3-2.7,0.9-5.4,1.6-8.1c0.7-2.6,1.7-5.2,2.9-7.6c0.4-0.8,0.8-1.5,1.2-2.2c0,0.1-0.1,0.2-0.1,0.3
				c-0.6,1.7-0.9,3.4-1.1,5.3c-0.2,1.8-0.3,3.4-0.3,4.6c0,2,0.2,4,0.5,5.9c0.3,2,0.9,3.8,1.8,5.4c0.8,1.6,2,2.9,3.5,4
				c1.5,1,3.4,1.5,5.8,1.5C128.2,154.4,127.8,155.9,127.2,157.7z M129.7,145.9c-0.1,1.7-0.3,3.4-0.7,5l-1,0.1
				c-1.5,0-2.7-0.6-3.6-1.9c-0.9-1.2-1.6-2.7-2.1-4.4c-0.5-1.7-0.8-3.5-0.9-5.2c-0.1-1.8-0.2-3.2-0.2-4.3c0-0.6,0-1.5,0.1-2.8
				c0.1-1.3,0.3-2.6,0.5-3.8c0.3-1.3,0.7-2.4,1.3-3.4s1.3-1.5,2.4-1.5c1,0,1.7,0.8,2.3,2.3c0.6,1.5,1,3.3,1.3,5.3
				c0.3,2,0.5,3.9,0.5,5.8c0.1,1.9,0.1,3.1,0.1,3.8C129.8,142.5,129.8,144.2,129.7,145.9z M146.7,128.7c0.2-3,0.5-6.3,0.9-10.1
				c0.4-3.7,0.8-7.6,1.4-11.6c0.5-4,1.2-7.7,2-11c0.8-3.3,1.6-6,2.6-8.2c1-2.2,2-3.2,3.3-3.2c0.9,0,1.6,0.3,2,0.9
				c0.5,0.6,0.8,1.4,1.1,2.3c0.3,0.9,0.4,1.8,0.4,2.7c0,0.9,0,1.6-0.1,2.1c-0.7,7.8-2.5,15.3-5.2,22.5c-2.7,7.2-5.7,13.8-8.8,19.9
				C146.4,133.8,146.5,131.7,146.7,128.7z M172.4,120.7c0.2-3,0.5-6.3,0.9-10c0.4-3.7,0.8-7.5,1.4-11.5c0.5-4,1.2-7.6,2-10.9
				c0.8-3.3,1.6-6,2.6-8.1c1-2.1,2-3.2,3.3-3.2c0.9,0,1.6,0.4,2,1.2c0.5,0.8,0.8,1.6,1.1,2.6c0.3,1,0.4,2,0.5,3.1
				c0.1,1.1,0.1,1.8,0,2.4c-0.4,4-1,7.9-2,11.6c-1,3.7-2.1,7.3-3.4,10.7c-1.3,3.4-2.7,6.6-4.2,9.7c-1.5,3.1-3,6-4.6,8.9
				C172.1,125.8,172.2,123.7,172.4,120.7z M206.1,191c-1.3,4.4-2.8,8.3-4.4,11.6c-2.1,0.4-4,0.7-5.7,0.7c-1,0-2.1-0.1-3.3-0.2
				c-1.2-0.1-2.3-0.4-3.3-0.8c-1-0.4-1.9-1-2.7-1.7c-0.8-0.7-1.3-1.7-1.5-3c-0.1-0.3-0.2-0.7-0.3-1.1c0-0.4-0.2-0.7-0.6-0.7
				c-0.4,0-0.8,0.2-1,0.7c-0.2,0.4-0.3,0.8-0.3,1.2c0,1.3,0.4,2.5,1.2,3.4c0.8,1,1.9,1.7,3.2,2.3c1.3,0.6,2.8,1,4.5,1.2
				c1.7,0.2,3.4,0.2,5.1,0.1c0.6-0.1,1.2-0.1,1.9-0.2c0.7-0.1,1.4-0.2,2.1-0.3c-1.9,3.5-4.1,6.2-6.7,8.1c-2.6,1.9-5.5,2.8-8.8,2.8
				c-1.6,0-3.1-0.3-4.4-0.9c-1.3-0.6-2.4-1.4-3.3-2.4c-0.9-1-1.6-2.2-2.1-3.6c-0.5-1.4-0.8-2.8-0.8-4.3c0.1-3.7,1.3-7.2,3.6-10.5
				c2.3-3.3,5.2-6.1,8.7-8.5c3.4-2.4,7.2-4.4,11.2-5.8c4-1.5,7.7-2.3,11.1-2.4C208.5,181.8,207.4,186.6,206.1,191z M221.1,189.7
				c-0.8,1.7-1.9,3.2-3.2,4.6c-1.4,1.4-2.9,2.6-4.7,3.7c-1.8,1.1-3.6,2-5.5,2.7c1.5-3.4,2.9-7.1,4.1-11.1c1.2-4,2.2-8.3,3-12.9
				c2,0.4,3.8,1.1,5.4,2.2c1.5,1.1,2.3,2.9,2.3,5.3C222.4,186.2,221.9,188,221.1,189.7z"/>
		</g>
	</g>
	<g>
		<path fill="#DDB467" d="M219.3,79.1c1.1,0.8,2.4-0.5,2.2-1.7c-0.8-3.9-2-7.7-3.3-11.5c2-2,3.9-4.1,5.6-6.3c0.7-0.9,0.4-2.6-1-2.5
			c-2.7,0.1-5.4,0.2-8.1,0.4c-1.6-3.4-3.4-6.7-5.4-9.8c-0.7-1-2.4-0.9-2.7,0.4c-0.9,3.4-1.7,6.8-2.3,10.3c-2.9,0.3-5.7,0.6-8.6,1
			c-1.1,0.2-1.5,1.8-0.7,2.5c2.5,2,5,3.9,7.6,5.7c-0.6,3.9-1,7.9-1.4,11.8c-0.1,0.8,0.4,1.2,0.9,1.4c0.5,0.3,1.1,0.2,1.6-0.3
			c2.3-2.5,4.7-4.9,7.2-7.3C213.7,75.1,216.5,77.1,219.3,79.1z M215.8,68.4c0.7,2,1.3,4,1.8,6c-1.6-1.1-3.1-2.2-4.7-3.2
			C213.9,70.2,214.9,69.3,215.8,68.4z M210.5,69.4c-1.6-1.1-3.2-2.1-4.7-3.2c0.3-1.7,0.6-3.4,0.9-5.1c2-0.2,4.1-0.3,6.1-0.5
			c0.7,1.5,1.4,3.1,2,4.7C213.3,66.7,211.9,68.1,210.5,69.4z M219.5,60.2c-0.8,0.9-1.6,1.8-2.5,2.7c-0.3-0.9-0.7-1.7-1.1-2.6
			C217.1,60.3,218.3,60.3,219.5,60.2z M208.5,52.3c1,1.8,2,3.6,2.9,5.5c-1.4,0.1-2.8,0.2-4.2,0.3C207.6,56.1,208,54.2,208.5,52.3z
			 M199.7,61.8c1.3-0.2,2.6-0.3,3.9-0.5c-0.2,1-0.3,2-0.5,3C201.9,63.5,200.8,62.7,199.7,61.8z M204.5,75.2c0.2-1.9,0.5-3.8,0.7-5.8
			c1,0.7,2,1.4,3,2.1C207,72.7,205.8,73.9,204.5,75.2z"/>
		<path fill="#DDB467" d="M85.1,231c-2.7,0.1-5.4,0.2-8.1,0.4c-1.6-3.4-3.4-6.7-5.4-9.8c-0.7-1-2.4-0.9-2.7,0.4
			c-0.9,3.4-1.7,6.8-2.3,10.3c-2.9,0.3-5.7,0.6-8.6,1c-1.1,0.2-1.5,1.8-0.7,2.5c2.5,2,5,3.9,7.6,5.7c-0.6,3.9-1,7.9-1.4,11.8
			c-0.1,0.8,0.4,1.2,0.9,1.4c0.5,0.3,1.1,0.2,1.6-0.3c2.3-2.5,4.7-4.9,7.2-7.3c2.9,1.9,5.7,3.9,8.5,5.9c1.1,0.8,2.4-0.5,2.2-1.7
			c-0.8-3.9-2-7.7-3.3-11.5c2-2,3.9-4.1,5.6-6.3C86.8,232.6,86.5,230.9,85.1,231z M70.8,226.1c1,1.8,2,3.6,2.9,5.5
			c-1.4,0.1-2.8,0.2-4.2,0.3C70,230,70.4,228,70.8,226.1z M75.1,234.4c0.7,1.5,1.4,3.1,2,4.7c-1.4,1.4-2.8,2.8-4.3,4.1
			c-1.6-1.1-3.2-2.1-4.7-3.2c0.3-1.7,0.6-3.4,0.9-5.1C71,234.7,73.1,234.6,75.1,234.4z M62,235.7c1.3-0.2,2.6-0.3,3.9-0.5
			c-0.2,1-0.3,2-0.5,3C64.3,237.4,63.2,236.5,62,235.7z M66.9,249c0.2-1.9,0.5-3.8,0.7-5.8c1,0.7,2,1.4,3,2.1
			C69.4,246.6,68.1,247.8,66.9,249z M78.2,242.2c0.7,2,1.3,4,1.8,6c-1.6-1.1-3.1-2.2-4.7-3.2C76.3,244,77.3,243.1,78.2,242.2z
			 M78.3,234.2c1.2-0.1,2.4-0.1,3.6-0.2c-0.8,0.9-1.6,1.8-2.5,2.7C79,236,78.7,235.1,78.3,234.2z"/>
		<path fill="#DDB467" d="M163.5,207c-3.9,0.1-7.9,0.3-11.8,0.5c-2.3-4.9-4.9-9.6-7.8-14.2c-0.7-1-2.4-0.9-2.7,0.4
			c-1.3,4.9-2.4,9.9-3.4,14.9c-4.1,0.4-8.3,0.9-12.4,1.5c-1.1,0.2-1.5,1.8-0.7,2.5c3.6,2.9,7.3,5.6,11,8.2c-0.8,5.6-1.5,11.3-2.1,17
			c-0.1,0.8,0.4,1.2,0.9,1.4c0.5,0.3,1.1,0.2,1.6-0.3c3.3-3.7,6.9-7.2,10.5-10.6c4.2,2.8,8.3,5.7,12.4,8.7c1.1,0.8,2.4-0.5,2.2-1.7
			c-1.2-5.6-2.8-11.1-4.8-16.5c2.9-3,5.8-6.1,8.4-9.5C165.4,208.3,164.5,206.9,163.5,207z M143.1,197.9c1.9,3.2,3.7,6.5,5.3,9.8
			c-2.6,0.2-5.1,0.4-7.7,0.6C141.5,204.8,142.3,201.3,143.1,197.9z M149.8,210.6c1.1,2.5,2.2,4.9,3.1,7.5c-2.2,2.2-4.4,4.3-6.7,6.4
			c-2.5-1.7-5-3.3-7.4-5c0.4-2.7,0.9-5.4,1.4-8.1C143.4,211,146.6,210.8,149.8,210.6z M129.3,212.5c2.6-0.4,5.2-0.7,7.8-0.9
			c-0.4,2-0.7,4-1,6C133.9,215.9,131.6,214.3,129.3,212.5z M137,233.5c0.4-3.6,0.9-7.3,1.4-10.9c1.9,1.3,3.8,2.6,5.7,3.9
			C141.7,228.8,139.3,231.1,137,233.5z M154.1,221c1.3,3.6,2.4,7.3,3.3,11.1c-2.8-2-5.7-4-8.6-5.9
			C150.5,224.4,152.3,222.7,154.1,221z M153,210.4c2.4-0.1,4.9-0.2,7.3-0.3c-1.6,2-3.3,3.9-5.1,5.7
			C154.5,213.9,153.8,212.1,153,210.4z"/>
		<path fill="#DDB467" d="M102.6,41.4c-2.1,0.1-4.3,0.2-6.4,0.3c-1.3-2.7-2.7-5.3-4.3-7.8c-0.7-1-2.4-0.9-2.7,0.4
			c-0.7,2.7-1.3,5.4-1.9,8.2c-2.3,0.2-4.5,0.5-6.8,0.8c-1.1,0.2-1.5,1.8-0.7,2.5c2,1.6,4,3.1,6.1,4.5c-0.5,3.1-0.8,6.3-1.2,9.5
			c-0.1,0.8,0.4,1.2,0.9,1.4c0.5,0.3,1.1,0.2,1.6-0.3c1.8-2,3.7-3.9,5.6-5.7c2.3,1.5,4.5,3.1,6.7,4.7c1.1,0.8,2.4-0.5,2.2-1.7
			c-0.7-3.1-1.6-6.1-2.6-9.1c1.5-1.6,3-3.2,4.4-5C104.4,43,104,41.4,102.6,41.4z M91.2,38.5c0.6,1.1,1.2,2.3,1.8,3.4
			c-0.9,0.1-1.7,0.1-2.6,0.2C90.7,40.9,90.9,39.7,91.2,38.5z M94.4,44.8c0.5,1.1,1,2.3,1.4,3.4c-1,1-2.1,2-3.1,3
			c-1.2-0.8-2.3-1.6-3.5-2.4c0.2-1.3,0.4-2.5,0.6-3.8C91.3,45,92.9,44.9,94.4,44.8z M84.7,45.7c0.7-0.1,1.4-0.2,2.1-0.3
			c-0.1,0.5-0.2,1.1-0.3,1.6C85.9,46.6,85.3,46.2,84.7,45.7z M88.3,55.6c0.1-1.1,0.3-2.3,0.4-3.4c0.6,0.4,1.2,0.8,1.8,1.2
			C89.8,54.1,89,54.8,88.3,55.6z M96.9,51.3c0.4,1.2,0.8,2.4,1.1,3.7c-1-0.7-1.9-1.3-2.9-2C95.8,52.4,96.4,51.9,96.9,51.3z
			 M97.5,44.6c0.6,0,1.2,0,1.8-0.1c-0.4,0.5-0.8,0.9-1.3,1.4C97.9,45.5,97.7,45,97.5,44.6z"/>
		<path fill="#DDB467" d="M233.3,227.5c-2.1,0.1-4.3,0.2-6.4,0.3c-1.3-2.7-2.7-5.3-4.3-7.8c-0.7-1-2.4-0.9-2.7,0.4
			c-0.7,2.7-1.3,5.4-1.9,8.2c-2.3,0.2-4.5,0.5-6.8,0.8c-1.1,0.2-1.5,1.8-0.7,2.5c2,1.6,4,3.1,6.1,4.5c-0.5,3.1-0.8,6.3-1.2,9.5
			c-0.1,0.8,0.4,1.2,0.9,1.4c0.5,0.3,1.1,0.2,1.6-0.3c1.8-2,3.7-3.9,5.6-5.7c2.3,1.5,4.5,3.1,6.7,4.7c1.1,0.8,2.4-0.5,2.2-1.7
			c-0.7-3.1-1.6-6.1-2.6-9.1c1.5-1.6,3-3.2,4.4-5C235,229.1,234.7,227.4,233.3,227.5z M221.8,224.6c0.6,1.1,1.2,2.3,1.8,3.4
			c-0.9,0.1-1.7,0.1-2.6,0.2C221.3,227,221.5,225.8,221.8,224.6z M225,230.9c0.5,1.1,1,2.3,1.4,3.4c-1,1-2.1,2-3.1,3
			c-1.2-0.8-2.3-1.6-3.5-2.4c0.2-1.3,0.4-2.5,0.6-3.8C222,231.1,223.5,231,225,230.9z M215.3,231.8c0.7-0.1,1.4-0.2,2.1-0.3
			c-0.1,0.5-0.2,1.1-0.3,1.6C216.5,232.7,215.9,232.2,215.3,231.8z M218.9,241.6c0.1-1.1,0.3-2.3,0.4-3.4c0.6,0.4,1.2,0.8,1.8,1.2
			C220.4,240.1,219.6,240.9,218.9,241.6z M227.6,237.4c0.4,1.2,0.8,2.4,1.1,3.7c-1-0.7-1.9-1.3-2.9-2
			C226.4,238.5,227,237.9,227.6,237.4z M228.2,230.7c0.6,0,1.2,0,1.8-0.1c-0.4,0.5-0.8,0.9-1.3,1.4
			C228.5,231.5,228.4,231.1,228.2,230.7z"/>
	</g>
</g>
</svg>
